<svg width="60" height="61" viewBox="0 0 60 61" fill="none" xmlns="http://www.w3.org/2000/svg">
<path fill-rule="evenodd" clip-rule="evenodd" d="M30 0.499939C46.569 0.499939 60 14.2697 60 31.2587C60 44.8457 51.414 56.3718 39.501 60.4428C37.98 60.7458 37.44 59.7852 37.44 58.9662C37.44 57.9522 37.476 54.6404 37.476 50.5244C37.476 47.6564 36.516 45.7845 35.439 44.8305C42.12 44.0685 49.14 41.4673 49.14 29.6533C49.14 26.2933 47.976 23.5514 46.05 21.3974C46.362 20.6204 47.391 17.4918 45.756 13.2558C45.756 13.2558 43.242 12.4316 37.515 16.4096C35.118 15.7286 32.55 15.386 30 15.374C27.45 15.386 24.885 15.7286 22.491 16.4096C16.758 12.4316 14.238 13.2558 14.238 13.2558C12.609 17.4918 13.638 20.6204 13.947 21.3974C12.03 23.5514 10.857 26.2933 10.857 29.6533C10.857 41.4373 17.862 44.0784 24.525 44.8554C23.667 45.6234 22.89 46.9782 22.62 48.9672C20.91 49.7532 16.566 51.1135 13.89 46.4125C13.89 46.4125 12.303 43.4571 9.291 43.2411C9.291 43.2411 6.366 43.2023 9.087 45.1103C9.087 45.1103 11.052 46.0553 12.417 49.6103C12.417 49.6103 14.178 55.1002 22.524 53.2402C22.539 55.8112 22.566 58.2342 22.566 58.9662C22.566 59.7792 22.014 60.7307 20.517 60.4457C8.59499 56.3807 0 44.8487 0 31.2587C0 14.2697 13.434 0.499939 30 0.499939Z" fill="#FEFCFB"/>
</svg>
